# xmcd
#
# Track frame offsets: 
#        150
#        19774
#        41736
#        56837
#        74620
#        96534
#        115762
#        134686
#        149513
#        166489
#        191404
#        211769
#        230658
#        244143
#        273174
#        289321
#        312152
#        327662
#        351983
#        369629
#        385676
#
# Disc length: 5254 seconds
#
# Revision: 0
# Processed by: cddbd v1.5.2PL0 Copyright (c) Steve Scherf et al.
# Submitted via: ExactAudioCopy v1.0b3
#
DISCID=5c148415
DTITLE=Snowy White's Blues Agency - Open For Business
DYEAR=1989
DGENRE=Blues Rock
TTITLE0=Woke Up This Morning
TTITLE1=The Thrill Is Gone
TTITLE2=You Know It Ain't Right
TTITLE3=Change My Life
TTITLE4=The Agency Blues
TTITLE5=Judgment Day
TTITLE6=Ooh-Wee Baby
TTITLE7=The Rest Of My Life
TTITLE8=Parchman Farm
TTITLE9=The Agency Shuffle
TTITLE10=Another Man
TTITLE11=I Can't Help Myself
TTITLE12=Blues On Me
TTITLE13=Out Of Order
TTITLE14=When You Broke Your Promise
TTITLE15=I Want Your Love
TTITLE16=Out Of My Dreams
TTITLE17=Addicted Man
TTITLE18=Open For Business
TTITLE19=Walking The Streets
TTITLE20=Land Of Plenty
EXTD=
EXTT0=
EXTT1=
EXTT2=
EXTT3=
EXTT4=
EXTT5=
EXTT6=
EXTT7=
EXTT8=
EXTT9=
EXTT10=
EXTT11=
EXTT12=
EXTT13=
EXTT14=
EXTT15=
EXTT16=
EXTT17=
EXTT18=
EXTT19=
EXTT20=
PLAYORDER=
